<svg 
 xmlns="http://www.w3.org/2000/svg"
 xmlns:xlink="http://www.w3.org/1999/xlink"
 width="13px" height="13px">
<path fill-rule="evenodd"  fill="rgb(22, 125, 188)"
 d="M12.285,0.714 C11.808,0.238 11.234,-0.001 10.563,-0.001 L2.437,-0.001 C1.766,-0.001 1.192,0.238 0.715,0.714 C0.238,1.191 -0.000,1.765 -0.000,2.437 L-0.000,10.562 C-0.000,11.233 0.238,11.807 0.715,12.285 C1.192,12.761 1.766,13.000 2.437,13.000 L10.563,13.000 C11.234,13.000 11.808,12.761 12.285,12.285 C12.762,11.807 13.000,11.233 13.000,10.562 L13.000,2.437 C13.000,1.765 12.762,1.191 12.285,0.714 L12.285,0.714 ZM10.994,4.713 L5.798,9.911 C5.690,10.017 5.563,10.071 5.417,10.071 C5.270,10.071 5.143,10.017 5.036,9.911 L2.005,6.882 C1.898,6.774 1.845,6.647 1.845,6.500 C1.845,6.353 1.898,6.227 2.005,6.119 L2.869,5.255 C2.976,5.149 3.103,5.094 3.250,5.094 C3.397,5.094 3.524,5.149 3.631,5.255 L5.417,7.040 L9.369,3.088 C9.476,2.982 9.603,2.928 9.750,2.928 C9.897,2.928 10.023,2.982 10.131,3.088 L10.994,3.952 C11.101,4.059 11.155,4.187 11.155,4.334 C11.155,4.479 11.101,4.607 10.994,4.713 L10.994,4.713 Z"/>
</svg>