<svg width="20" height="19" viewBox="0 0 20 19" fill="none" xmlns="http://www.w3.org/2000/svg">
<path d="M10 19L2.55431 11.2333C2.32959 11.0113 0 8.62093 0 5.77602C0 2.2127 2.09988 0 5.47815 0C7.34332 0 9.04619 1.4107 10 2.38512C10.9538 1.4107 12.6542 0 14.5194 0C17.9001 0 20 2.2127 20 5.77602C20 8.62093 17.6704 11.0113 17.4457 11.2333L10 19ZM5.47815 2.08992C2.60175 2.08992 1.9975 4.09363 1.9975 5.77602C1.9975 7.78757 3.91261 9.70507 3.93258 9.72336L3.95506 9.74426L10 16.0506L16.0674 9.72075C16.0849 9.70246 18.0025 7.78757 18.0025 5.77602C18.0025 4.09363 17.3983 2.08992 14.5194 2.08992C13.0387 2.08992 11.3134 3.88725 10.774 4.58215L9.9975 5.57748L9.22347 4.57954C8.68414 3.88725 6.9588 2.08992 5.47815 2.08992Z" fill="#FA4616"/>
</svg>
