<?xml version="1.0" encoding="UTF-8"?>
<svg width="196px" height="96px" viewBox="0 0 196 96" version="1.1" xmlns="http://www.w3.org/2000/svg" xmlns:xlink="http://www.w3.org/1999/xlink">
    <title>icons-social</title>
    <g id="Page-1" stroke="none" stroke-width="1" fill="none" fill-rule="evenodd">
        <g id="icons-social">
            <g id="Hover" transform="translate(0.000000, 48.000000)">
                <g id="Link" transform="translate(147.000000, 0.000000)">
                    <path d="M24,1 C32.6577456,1 38.385931,2.10675023 41.9486513,5.38192099 C45.4718442,8.62075466 46.7988113,13.9398424 46.9792696,22.0658621 C47.0317131,22.7429029 47.0571429,23.368482 47.0571429,24 C47.0571429,24.6312642 47.0317345,25.2565925 46.9818691,25.8750167 C46.8001932,33.9881666 45.4946793,39.284582 42.0413494,42.5317266 C38.5593936,45.805788 32.9672541,46.9510166 24.5330477,46.9985094 L24.5330477,46.9985094 L24,47 C15.0603651,47 9.24176018,45.8225471 5.71014112,42.290928 C2.1797759,38.7605628 1,32.942864 1,24 C1,15.0555556 2.17689932,9.23731424 5.70710678,5.70710678 C9.23731424,2.17689932 15.0555556,1 24,1 Z" id="Combined-Shape" stroke="#DF2D00" stroke-width="2" fill="#DF2D00"/>
                    <path d="M18.4440882,21.4575158 C20.532782,19.4931675 23.7168626,19.5192984 25.7698374,21.5061476 L25.7698374,21.5061476 L25.8235767,21.5614581 C25.853951,21.5927205 25.8749795,21.6143637 25.8960079,21.636007 L25.8960079,21.636007 L26.0928964,21.8485903 C26.4747186,22.2813288 26.7837077,22.7583634 27,23.2592498 L27,23.2592498 L26.4637753,23.8111523 C25.9275505,24.3630549 25.1074421,24.4929143 24.4450468,24.2331954 C24.3188763,24.0059415 24.1611631,23.8111523 23.9719073,23.6163632 C23.8141942,23.4215741 23.5933958,23.2592498 23.3725973,23.1293904 L23.3725973,23.1293904 L23.2015846,23.0440198 C22.2174945,22.5977282 20.9911286,22.7885094 20.1867915,23.6163632 L20.1867915,23.6163632 L14.4775752,29.4925021 C13.4366683,30.5963072 13.4366683,32.3494094 14.4775752,33.4207496 C15.5500246,34.4920899 17.2533268,34.4920899 18.2942336,33.4207496 L18.2942336,33.4207496 L23.1202563,28.4536267 C24.2242484,28.843205 25.454411,28.9081347 26.5899458,28.6484158 C26.3691474,28.9405995 26.1483489,29.2327832 25.8960079,29.4925021 L25.8960079,29.4925021 L20.1867915,35.368641 L20.0102965,35.544868 C17.9167199,37.542108 14.6396692,37.4833656 12.5850172,35.368641 L12.5850172,35.368641 L12.409048,35.1790031 C10.4733861,32.9942542 10.5320425,29.6260718 12.5850172,27.5446107 L12.5850172,27.5446107 L18.262691,21.636007 Z M27.9897035,12.455132 C30.0832801,10.457892 33.3603308,10.5166344 35.4149828,12.631359 L35.4149828,12.631359 L35.590952,12.8209969 C37.5266139,15.0057458 37.4679575,18.3739282 35.4149828,20.4553893 L35.4149828,20.4553893 L29.737309,26.363993 L29.5559118,26.5424842 C27.467218,28.5068325 24.2831374,28.4807016 22.2301626,26.4938524 L22.2301626,26.4938524 L22.1764233,26.4385419 C22.146049,26.4072795 22.1250205,26.3856363 22.1039921,26.363993 L22.1039921,26.363993 L21.9071036,26.1514097 C21.5252814,25.7186712 21.2162923,25.2416366 21,24.7407502 L21,24.7407502 L21.5362247,24.1888477 C22.0724495,23.6369451 22.8925579,23.5070857 23.5549532,23.7668046 C23.6811237,23.9940585 23.8388369,24.1888477 24.0280927,24.3836368 C24.1858058,24.5784259 24.4066042,24.7407502 24.6274027,24.8706096 L24.6274027,24.8706096 L24.7984154,24.9559802 C25.7825055,25.4022718 27.0088714,25.2114906 27.8132085,24.3836368 L27.8132085,24.3836368 L33.5224248,18.5074979 C34.5633317,17.4036928 34.5633317,15.6505906 33.5224248,14.5792504 C32.4499754,13.5079101 30.7466732,13.5079101 29.7057664,14.5792504 L29.7057664,14.5792504 L24.8797437,19.5139084 C23.7757516,19.1243302 22.545589,19.0594005 21.4100542,19.3515842 C21.6308526,19.0594005 21.8516511,18.7672168 22.1039921,18.5074979 L22.1039921,18.5074979 L27.8132085,12.631359 Z" id="Combined-Shape" fill="#FFFFFF" fill-rule="nonzero"/>
                </g>
                <g id="Mail" transform="translate(98.000000, 0.000000)">
                    <path d="M24,1 C32.6577456,1 38.385931,2.10675023 41.9486513,5.38192099 C45.4718442,8.62075466 46.7988113,13.9398424 46.9792696,22.0658621 C47.0317131,22.7429029 47.0571429,23.368482 47.0571429,24 C47.0571429,24.6312642 47.0317345,25.2565925 46.9818691,25.8750167 C46.8001932,33.9881666 45.4946793,39.284582 42.0413494,42.5317266 C38.5593936,45.805788 32.9672541,46.9510166 24.5330477,46.9985094 L24.5330477,46.9985094 L24,47 C15.0603651,47 9.24176018,45.8225471 5.71014112,42.290928 C2.1797759,38.7605628 1,32.942864 1,24 C1,15.0555556 2.17689932,9.23731424 5.70710678,5.70710678 C9.23731424,2.17689932 15.0555556,1 24,1 Z" id="Combined-Shape" stroke="#DF2D00" stroke-width="2" fill="#DF2D00"/>
                    <path d="M10,21 L20.4606566,25.4291501 C21.5517542,25.8799125 22.7304005,26.1052936 23.9386343,26.1052936 C25.1345779,26.1052936 26.3593505,25.8842301 27.5551424,25.4423909 L27.5551424,25.4423909 L38,21.0161552 L38,29.5612281 C38,31.4603991 36.3768768,33 34.3746346,33 L34.3746346,33 L13.6253654,33 C11.6231422,33 10,31.4603991 10,29.5612281 L10,29.5612281 L10,21 Z M34.3746346,16 C36.3768767,16 38,17.5323481 38,19.4226123 L38,19.4226123 L38,19.7674036 L26.8577867,24.46805 C24.9221545,25.1745356 22.9158157,25.177114 21.2129388,24.4769312 L21.2129388,24.4769312 L10,19.7516646 L10,19.4226123 C10,17.5323481 11.6231422,16 13.6253654,16 L13.6253654,16 Z" id="Combined-Shape" fill="#FFFFFF" fill-rule="nonzero"/>
                </g>
                <g id="Facebook" transform="translate(49.000000, 0.000000)">
                    <path d="M24,1 C32.6577456,1 38.385931,2.10675023 41.9486513,5.38192099 C45.4718442,8.62075466 46.7988113,13.9398424 46.9792696,22.0658621 C47.0317131,22.7429029 47.0571429,23.368482 47.0571429,24 C47.0571429,24.6312642 47.0317345,25.2565925 46.9818691,25.8750167 C46.8001932,33.9881666 45.4946793,39.284582 42.0413494,42.5317266 C38.5593936,45.805788 32.9672541,46.9510166 24.5330477,46.9985094 L24.5330477,46.9985094 L24,47 C15.0603651,47 9.24176018,45.8225471 5.71014112,42.290928 C2.1797759,38.7605628 1,32.942864 1,24 C1,15.0555556 2.17689932,9.23731424 5.70710678,5.70710678 C9.23731424,2.17689932 15.0555556,1 24,1 Z" id="Combined-Shape" stroke="#DF2D00" stroke-width="2" fill="#DF2D00"/>
                    <path d="M21.8584271,36.375 L21.8584271,25.7109391 L18,25.7109391 L18,21.2995882 L21.8584271,21.2995882 L21.8584271,17.93741 C21.8584271,14.1126664 24.1271664,12 27.5982842,12 C29.260895,12 31,12.2980539 31,12.2980539 L31,16.053648 L29.0838437,16.053648 C27.196056,16.053648 26.6072781,17.2300168 26.6072781,18.4368713 L26.6072781,21.2995882 L30.8219355,21.2995882 L30.148178,25.7109391 L26.6072781,25.7109391 L26.6072781,36.375 L21.8584271,36.375 Z" id="Path" fill="#FFFFFF" fill-rule="nonzero"/>
                </g>
                <g id="Twitter">
                    <path d="M24,1 C32.6577456,1 38.385931,2.10675023 41.9486513,5.38192099 C45.4718442,8.62075466 46.7988113,13.9398424 46.9792696,22.0658621 C47.0317131,22.7429029 47.0571429,23.368482 47.0571429,24 C47.0571429,24.6312642 47.0317345,25.2565925 46.9818691,25.8750167 C46.8001932,33.9881666 45.4946793,39.284582 42.0413494,42.5317266 C38.5593936,45.805788 32.9672541,46.9510166 24.5330477,46.9985094 L24.5330477,46.9985094 L24,47 C15.0603651,47 9.24176018,45.8225471 5.71014112,42.290928 C2.1797759,38.7605628 1,32.942864 1,24 C1,15.0555556 2.17689932,9.23731424 5.70710678,5.70710678 C9.23731424,2.17689932 15.0555556,1 24,1 Z" id="Combined-Shape" stroke="#DF2D00" stroke-width="2" fill="#DF2D00"/>
                    <path d="M38,15.7226953 C36.9697795,16.1845007 35.8626431,16.4966153 34.7006108,16.6369893 C35.8867113,15.9183492 36.7975127,14.7804508 37.2264384,13.4246415 C36.1165368,14.0899684 34.8871137,14.5732026 33.5786239,14.8336604 C32.5306851,13.7051823 31.0377409,13 29.3855372,13 C26.2129412,13 23.6408208,15.5997128 23.6408208,18.8062634 C23.6408208,19.26134 23.6917224,19.7045117 23.7896338,20.1294638 C19.0153261,19.8873291 14.7825012,17.5757141 11.9492154,14.062846 C11.4547423,14.9204107 11.1714547,15.9178317 11.1714547,16.9819199 C11.1714547,18.9963273 12.1856981,20.7735689 13.7270859,21.8147791 C12.7853543,21.7846546 11.8996452,21.5234722 11.1250594,21.0885821 C11.1246498,21.112806 11.1246498,21.1371333 11.1246498,21.1615641 C11.1246498,23.97484 13.1047953,26.3216521 15.7327335,26.8549901 C15.2506529,26.9877036 14.7431728,27.0586152 14.2192033,27.0586152 C13.8490654,27.0586152 13.4891693,27.0222794 13.1384908,26.9544734 C13.8694466,29.2613266 15.9909287,30.9400166 18.504671,30.9869114 C16.5386591,32.5441717 14.0616848,33.4724411 11.37035,33.4724411 C10.9067047,33.4724411 10.4494093,33.4450081 10,33.3913844 C12.5422144,35.0388112 15.5617982,36 18.8058817,36 C29.3721204,36 35.1501225,27.1524048 35.1501225,19.4795614 C35.1501225,19.2277993 35.1445919,18.977383 35.1335308,18.728416 C36.255825,17.909775 37.2298182,16.887095 38,15.7226953" id="Path" fill="#FFFFFF" fill-rule="nonzero"/>
                </g>
            </g>
            <g id="Default">
                <g id="Link" transform="translate(147.000000, 0.000000)">
                    <path d="M24,1 C32.6577456,1 38.385931,2.10675023 41.9486513,5.38192099 C45.4718442,8.62075466 46.7988113,13.9398424 46.9792696,22.0658621 C47.0317131,22.7429029 47.0571429,23.368482 47.0571429,24 C47.0571429,24.6312642 47.0317345,25.2565925 46.9818691,25.8750167 C46.8001932,33.9881666 45.4946793,39.284582 42.0413494,42.5317266 C38.5593936,45.805788 32.9672541,46.9510166 24.5330477,46.9985094 L24.5330477,46.9985094 L24,47 C15.0603651,47 9.24176018,45.8225471 5.71014112,42.290928 C2.1797759,38.7605628 1,32.942864 1,24 C1,15.0555556 2.17689932,9.23731424 5.70710678,5.70710678 C9.23731424,2.17689932 15.0555556,1 24,1 Z" id="Combined-Shape" stroke="#DF2D00" stroke-width="2"/>
                    <path d="M18.4440882,21.4575158 C20.532782,19.4931675 23.7168626,19.5192984 25.7698374,21.5061476 L25.7698374,21.5061476 L25.8235767,21.5614581 C25.853951,21.5927205 25.8749795,21.6143637 25.8960079,21.636007 L25.8960079,21.636007 L26.0928964,21.8485903 C26.4747186,22.2813288 26.7837077,22.7583634 27,23.2592498 L27,23.2592498 L26.4637753,23.8111523 C25.9275505,24.3630549 25.1074421,24.4929143 24.4450468,24.2331954 C24.3188763,24.0059415 24.1611631,23.8111523 23.9719073,23.6163632 C23.8141942,23.4215741 23.5933958,23.2592498 23.3725973,23.1293904 L23.3725973,23.1293904 L23.2015846,23.0440198 C22.2174945,22.5977282 20.9911286,22.7885094 20.1867915,23.6163632 L20.1867915,23.6163632 L14.4775752,29.4925021 C13.4366683,30.5963072 13.4366683,32.3494094 14.4775752,33.4207496 C15.5500246,34.4920899 17.2533268,34.4920899 18.2942336,33.4207496 L18.2942336,33.4207496 L23.1202563,28.4536267 C24.2242484,28.843205 25.454411,28.9081347 26.5899458,28.6484158 C26.3691474,28.9405995 26.1483489,29.2327832 25.8960079,29.4925021 L25.8960079,29.4925021 L20.1867915,35.368641 L20.0102965,35.544868 C17.9167199,37.542108 14.6396692,37.4833656 12.5850172,35.368641 L12.5850172,35.368641 L12.409048,35.1790031 C10.4733861,32.9942542 10.5320425,29.6260718 12.5850172,27.5446107 L12.5850172,27.5446107 L18.262691,21.636007 Z M27.9897035,12.455132 C30.0832801,10.457892 33.3603308,10.5166344 35.4149828,12.631359 L35.4149828,12.631359 L35.590952,12.8209969 C37.5266139,15.0057458 37.4679575,18.3739282 35.4149828,20.4553893 L35.4149828,20.4553893 L29.737309,26.363993 L29.5559118,26.5424842 C27.467218,28.5068325 24.2831374,28.4807016 22.2301626,26.4938524 L22.2301626,26.4938524 L22.1764233,26.4385419 C22.146049,26.4072795 22.1250205,26.3856363 22.1039921,26.363993 L22.1039921,26.363993 L21.9071036,26.1514097 C21.5252814,25.7186712 21.2162923,25.2416366 21,24.7407502 L21,24.7407502 L21.5362247,24.1888477 C22.0724495,23.6369451 22.8925579,23.5070857 23.5549532,23.7668046 C23.6811237,23.9940585 23.8388369,24.1888477 24.0280927,24.3836368 C24.1858058,24.5784259 24.4066042,24.7407502 24.6274027,24.8706096 L24.6274027,24.8706096 L24.7984154,24.9559802 C25.7825055,25.4022718 27.0088714,25.2114906 27.8132085,24.3836368 L27.8132085,24.3836368 L33.5224248,18.5074979 C34.5633317,17.4036928 34.5633317,15.6505906 33.5224248,14.5792504 C32.4499754,13.5079101 30.7466732,13.5079101 29.7057664,14.5792504 L29.7057664,14.5792504 L24.8797437,19.5139084 C23.7757516,19.1243302 22.545589,19.0594005 21.4100542,19.3515842 C21.6308526,19.0594005 21.8516511,18.7672168 22.1039921,18.5074979 L22.1039921,18.5074979 L27.8132085,12.631359 Z" id="Combined-Shape" fill="#1A1A1A" fill-rule="nonzero"/>
                </g>
                <g id="Mail" transform="translate(98.000000, 0.000000)">
                    <path d="M24,1 C32.6577456,1 38.385931,2.10675023 41.9486513,5.38192099 C45.4718442,8.62075466 46.7988113,13.9398424 46.9792696,22.0658621 C47.0317131,22.7429029 47.0571429,23.368482 47.0571429,24 C47.0571429,24.6312642 47.0317345,25.2565925 46.9818691,25.8750167 C46.8001932,33.9881666 45.4946793,39.284582 42.0413494,42.5317266 C38.5593936,45.805788 32.9672541,46.9510166 24.5330477,46.9985094 L24.5330477,46.9985094 L24,47 C15.0603651,47 9.24176018,45.8225471 5.71014112,42.290928 C2.1797759,38.7605628 1,32.942864 1,24 C1,15.0555556 2.17689932,9.23731424 5.70710678,5.70710678 C9.23731424,2.17689932 15.0555556,1 24,1 Z" id="Combined-Shape" stroke="#DF2D00" stroke-width="2"/>
                    <path d="M10,21 L20.4606566,25.4291501 C21.5517542,25.8799125 22.7304005,26.1052936 23.9386343,26.1052936 C25.1345779,26.1052936 26.3593505,25.8842301 27.5551424,25.4423909 L27.5551424,25.4423909 L38,21.0161552 L38,29.5612281 C38,31.4603991 36.3768768,33 34.3746346,33 L34.3746346,33 L13.6253654,33 C11.6231422,33 10,31.4603991 10,29.5612281 L10,29.5612281 L10,21 Z M34.3746346,16 C36.3768767,16 38,17.5323481 38,19.4226123 L38,19.4226123 L38,19.7674036 L26.8577867,24.46805 C24.9221545,25.1745356 22.9158157,25.177114 21.2129388,24.4769312 L21.2129388,24.4769312 L10,19.7516646 L10,19.4226123 C10,17.5323481 11.6231422,16 13.6253654,16 L13.6253654,16 Z" id="Combined-Shape" fill="#000000" fill-rule="nonzero"/>
                </g>
                <g id="Facebook" transform="translate(49.000000, 0.000000)">
                    <path d="M24,1 C32.6577456,1 38.385931,2.10675023 41.9486513,5.38192099 C45.4718442,8.62075466 46.7988113,13.9398424 46.9792696,22.0658621 C47.0317131,22.7429029 47.0571429,23.368482 47.0571429,24 C47.0571429,24.6312642 47.0317345,25.2565925 46.9818691,25.8750167 C46.8001932,33.9881666 45.4946793,39.284582 42.0413494,42.5317266 C38.5593936,45.805788 32.9672541,46.9510166 24.5330477,46.9985094 L24.5330477,46.9985094 L24,47 C15.0603651,47 9.24176018,45.8225471 5.71014112,42.290928 C2.1797759,38.7605628 1,32.942864 1,24 C1,15.0555556 2.17689932,9.23731424 5.70710678,5.70710678 C9.23731424,2.17689932 15.0555556,1 24,1 Z" id="Combined-Shape" stroke="#DF2D00" stroke-width="2"/>
                    <path d="M21.8584271,36.375 L21.8584271,25.7109391 L18,25.7109391 L18,21.2995882 L21.8584271,21.2995882 L21.8584271,17.93741 C21.8584271,14.1126664 24.1271664,12 27.5982842,12 C29.260895,12 31,12.2980539 31,12.2980539 L31,16.053648 L29.0838437,16.053648 C27.196056,16.053648 26.6072781,17.2300168 26.6072781,18.4368713 L26.6072781,21.2995882 L30.8219355,21.2995882 L30.148178,25.7109391 L26.6072781,25.7109391 L26.6072781,36.375 L21.8584271,36.375 Z" id="Path" fill="#000000" fill-rule="nonzero"/>
                </g>
                <g id="Twitter">
                    <path d="M24,1 C32.6577456,1 38.385931,2.10675023 41.9486513,5.38192099 C45.4718442,8.62075466 46.7988113,13.9398424 46.9792696,22.0658621 C47.0317131,22.7429029 47.0571429,23.368482 47.0571429,24 C47.0571429,24.6312642 47.0317345,25.2565925 46.9818691,25.8750167 C46.8001932,33.9881666 45.4946793,39.284582 42.0413494,42.5317266 C38.5593936,45.805788 32.9672541,46.9510166 24.5330477,46.9985094 L24.5330477,46.9985094 L24,47 C15.0603651,47 9.24176018,45.8225471 5.71014112,42.290928 C2.1797759,38.7605628 1,32.942864 1,24 C1,15.0555556 2.17689932,9.23731424 5.70710678,5.70710678 C9.23731424,2.17689932 15.0555556,1 24,1 Z" id="Combined-Shape" stroke="#DF2D00" stroke-width="2"/>
                    <path d="M38,15.7226953 C36.9697795,16.1845007 35.8626431,16.4966153 34.7006108,16.6369893 C35.8867113,15.9183492 36.7975127,14.7804508 37.2264384,13.4246415 C36.1165368,14.0899684 34.8871137,14.5732026 33.5786239,14.8336604 C32.5306851,13.7051823 31.0377409,13 29.3855372,13 C26.2129412,13 23.6408208,15.5997128 23.6408208,18.8062634 C23.6408208,19.26134 23.6917224,19.7045117 23.7896338,20.1294638 C19.0153261,19.8873291 14.7825012,17.5757141 11.9492154,14.062846 C11.4547423,14.9204107 11.1714547,15.9178317 11.1714547,16.9819199 C11.1714547,18.9963273 12.1856981,20.7735689 13.7270859,21.8147791 C12.7853543,21.7846546 11.8996452,21.5234722 11.1250594,21.0885821 C11.1246498,21.112806 11.1246498,21.1371333 11.1246498,21.1615641 C11.1246498,23.97484 13.1047953,26.3216521 15.7327335,26.8549901 C15.2506529,26.9877036 14.7431728,27.0586152 14.2192033,27.0586152 C13.8490654,27.0586152 13.4891693,27.0222794 13.1384908,26.9544734 C13.8694466,29.2613266 15.9909287,30.9400166 18.504671,30.9869114 C16.5386591,32.5441717 14.0616848,33.4724411 11.37035,33.4724411 C10.9067047,33.4724411 10.4494093,33.4450081 10,33.3913844 C12.5422144,35.0388112 15.5617982,36 18.8058817,36 C29.3721204,36 35.1501225,27.1524048 35.1501225,19.4795614 C35.1501225,19.2277993 35.1445919,18.977383 35.1335308,18.728416 C36.255825,17.909775 37.2298182,16.887095 38,15.7226953" id="Path" fill="#000000" fill-rule="nonzero"/>
                </g>
            </g>
        </g>
    </g>
</svg>